<svg 
    width="512" 
    height="512" 
    viewBox="-26 0 512 512"
    xmlns="http://www.w3.org/2000/svg">
    <g fill-rule="evenodd">
        <path d="m87.1875 310.542969 18.148438-38.195313-66.726563-65.234375-28.609375 27.96875zm0 0" fill="#f8f8f8"/>
        <path d="m38.609375 207.113281 66.726563 65.234375 115.789062-243.671875zm0 0" fill="#f5828c"/>
        <path d="m221.125 28.675781-115.789062 243.671875-18.148438 38.195313-8.707031 18.324219 151.519531 121.808593 151.519531-121.808593-8.707031-18.324219-18.148438-38.195313-115.789062-243.671875-8.875-18.675781zm0 0" fill="#f5828c"/>
        <path d="m230 450.675781-151.519531-121.808593-17.648438 37.136718 169.167969 135.996094 169.167969-135.996094-17.648438-37.136718zm0 0" fill="#f8f8f8"/>
        <path d="m238.875 28.675781 115.789062 243.671875 66.726563-65.234375zm0 0" fill="#f5828c"/>
        <path d="m421.390625 207.113281-66.726563 65.234375 18.148438 38.195313 77.1875-75.460938zm0 0" fill="#f8f8f8"/>
    </g>
    <path d="m456.992188 227.933594-209.851563-205.160156-8.109375-17.066407c-1.65625-3.484375-5.171875-5.707031-9.03125-5.707031s-7.375 2.222656-9.03125 5.707031l-8.109375 17.066407-209.851563 205.160156c-1.921874 1.878906-3.007812 4.457031-3.007812 7.148437 0 2.691407 1.085938 5.269531 3.007812 7.152344l72.082032 70.46875-23.289063 49.007813c-1.988281 4.183593-.84375 9.183593 2.765625 12.085937l169.167969 135.996094c1.832031 1.472656 4.046875 2.207031 6.265625 2.207031s4.4375-.734375 6.265625-2.207031l169.167969-135.996094c3.609375-2.902344 4.753906-7.902344 2.769531-12.085937l-23.289063-49.007813 1.308594-1.28125c3.949219-3.863281 4.023438-10.191406.164063-14.140625-2.695313-2.753906-6.582031-3.617188-10.03125-2.585938l-9.59375-20.1875 54.628906-53.410156 14.363281 14.039063c-3.09375 3.890625-2.878906 9.5625.683594 13.207031 3.859375 3.949219 10.195312 4.019531 14.140625.160156l6.414063-6.269531c1.925781-1.882813 3.011718-4.460937 3.011718-7.148437 0-2.691407-1.089844-5.273438-3.011718-7.152344zm-273.867188-119.285156c4.988281 2.367187 10.953125.246093 13.324219-4.742188l33.550781-70.605469 139.097656 292.722657-139.097656 111.824218-139.097656-111.824218 22.609375-47.582032c.792969-1.066406 1.34375-2.253906 1.660156-3.488281l42.648437-89.757813c2.371094-4.988281.25-10.953124-4.738281-13.324218s-10.953125-.25-13.324219 4.742187l-37.445312 78.796875-49.398438-48.296875 135.121094-132.101562-9.652344 20.3125c-2.367187 4.988281-.246093 10.953125 4.742188 13.324219zm-158.820312 126.433593 14.304687-13.984375 54.628906 53.40625-9.074219 19.097656zm205.695312 254.085938-156.746094-126.007813 8.824219-18.570312 141.65625 113.878906c1.832031 1.472656 4.046875 2.207031 6.265625 2.207031s4.4375-.734375 6.265625-2.207031l141.65625-113.875 8.824219 18.566406zm127.6875-233.757813-85.722656-180.398437 135.121094 132.101562zm0 0"/>
    <path d="m172.042969 131.066406c-5.078125-2.175781-10.957031.179688-13.132813 5.257813-2.175781 5.074219.175782 10.953125 5.25 13.128906 1.285156.550781 2.621094.8125 3.9375.8125 3.878906 0 7.570313-2.273437 9.195313-6.0625l.003906-.007813c2.175781-5.078124-.179687-10.953124-5.253906-13.128906zm0 0"/>
    <path d="m404.007812 266.085938c-3.714843 4.085937-3.414062 10.410156.671876 14.128906 1.917968 1.738281 4.324218 2.597656 6.726562 2.597656 2.71875 0 5.429688-1.101562 7.402344-3.273438l.003906-.003906c3.714844-4.085937 3.410156-10.40625-.675781-14.121094-4.085938-3.71875-10.414063-3.414062-14.128907.671876zm0 0"/>
</svg>